<svg xmlns="http://www.w3.org/2000/svg" width="254" height="311" viewBox="0 0 254 311">
    <g fill="none" fill-rule="evenodd">
        <g>
            <g>
                <path fill="#009BC5" d="M126.217 195.995c11.275-.001 23.202 4.81 29.847 8.806 6.644 3.997 12.107 8.285 16.662 12.779-1.73.428-7.495 1.235-10.019 1.858 1.407 1.497 2.66 2.83 3.912 4.165-.094.486 1.595 1.827 1.501 2.313-9.137-3.514-14.41-3.513-21.479-2.485 1.387.974 2.938 4.17 3.298 6.621-3.298-3.434-7.597-5.647-10.54-7.647-10.61-7.22-21.626-7.602-32.562-.79-4.302 2.68-7.665 4.31-12.49 9.38.44-2.472 1.012-5.617 1.327-7.384l-11.404 3.661c4.01-3.834 5.328-5.655 6.582-7.826-1.814-1.857-4.482-1.856-8.626.001 6.041-8.655 11.194-13.73 18.857-17.469 7.05-3.44 13.859-5.982 25.134-5.983zM131.702 0c-5.951 6.087-14.088 19.285-9.278 31.924 4.809 12.64 15.392 16.383 17.056 17.156.694-1.823 1.1-11.705-.279-17.222-1.516-6.071-3.275-10.54-4.508-13.848 12.38 3.396 20.34 11.522 27.35 20.935 6.338 8.51 9.51 18.315 12.626 28.364l.48 1.548.48 1.55c.093-1.767.226-3.538.37-5.31l.263-3.188c.407-4.961.752-9.917.368-14.816-.609-7.772-3.003-15.404-3.6-23.614 4.593 4.333 9.2 8.654 13.776 13.004 11.223 10.668 22.34 21.434 30.731 34.622 9.311 14.634 12.802 29.982 5.983 46.712-.934 2.29-4.674 5.841-7.58 8.535 11.579-.67 26.292-5.058 35.109-11.62 3.852 12.984 1.618 24.893-4.523 36.299-5.253 9.757-8.952 15.457-18.2 21.51-.9.588-2.875 2.143-4.83 3.856l-.404.357c-3.09 2.746-5.942 5.752-4.196 5.794 6.581.158 20.05-6.025 24.638-7.574-19.156 17.43-42.281 17.106-64.85 14.716-.32-3.268-.604-6.568-.882-9.87l-.331-3.963c-.664-7.92-1.352-15.788-2.453-23.195-1.448-9.74-5.576-18.638-12.636-25.753-9.368-9.444-21.407-12.354-34.073-12.02-7.825.205-15.903 1.335-23.334 3.716-13.087 4.192-20.94 14.424-24.788 27.127-3.207 10.59-5.435 21.573-7.02 32.537-1.548 10.705-.49 11.938-5.206 12.407-7.06.704-25.552.095-35.967-1.944 9.598.015 19.136-1.633 24.164-5.754-2.605-.715-18.708-2.417-32.837-11.814-11.747-7.813-20.018-21.833-22.368-30.031 6.681 7.923 12.893 10.453 13.38 10.104.967-2.11.218-4.174-1.627-9.488-4.828-13.897-2.155-21.739 6.5-32.57 5.843-7.31 11.341-14.57 12.52-24.222.72-5.892.596-6.562-4.415-14.562 10.041.77 17.263 6.727 25.003 12.944l.895.719c1.048.838 2.108 1.678 3.188 2.507 1.506-2.396 7.627-8.262 5.002-23.645-2.626-15.384 1.083-25.522 9.433-34.647C87.548 10.006 117.164 5.893 131.702 0z" transform="translate(-1111 -351) translate(1111 351)"/>
                <path fill="#000" fill-rule="nonzero" d="M4.782 297.495V271.91c3.149-3.406 6.163-5.01 8.977-5.01 2.01 0 3.283.535 4.22 1.604.872 1.068 1.274 2.538 1.274 4.676v24.314h3.617v-25.05c3.149-3.606 6.097-5.677 9.245-5.677 3.752 0 5.36 2.338 5.36 6.012v24.715h3.751v-25.05c0-5.343-3.148-8.95-8.24-8.95-3.617 0-7.704 2.405-10.518 5.878-1.005-3.473-3.885-5.878-7.838-5.878-3.618 0-7.637 2.538-9.781 5.277 0-2.672-.938-4.81-1.072-5.077l-3.55.802c.133.4 1.071 2.27 1.071 6.68v26.318h3.484zm53.761 1c5.206 0 9.078-2.553 11.147-6.248 1.602-2.754 2.536-6.315 2.536-10.883 0-5.307-1-9.203-2.936-12.159-1.936-2.956-5.407-5.71-10.88-5.71-4.673 0-8.144 2.15-10.213 4.904-2.202 2.956-3.47 7.322-3.47 12.495 0 5.038 1.067 9.07 3.07 12.025 2.002 3.157 5.607 5.576 10.746 5.576zm-.366-3c-3.606 0-6.411-1.918-7.68-3.968-1.402-2.248-2.27-6.215-2.27-10.91 0-4.1.734-7.274 2.003-9.522 1.202-2.183 4.007-4.1 7.68-4.1 3.539 0 6.544 1.851 7.88 4.496 1.269 2.38 1.936 5.687 1.936 10.382 0 3.835-.534 6.282-1.602 8.596-1.202 2.844-3.94 5.026-7.947 5.026zm34.297 15c5.338 0 10.476-1.197 13.48-4.388 1.867-1.995 2.735-4.189 2.735-7.048 0-3.058-.934-5.385-2.936-7.247-2.402-2.194-5.138-2.992-10.343-3.058l-4.804-.066c-.934 0-1.468-.333-1.468-.798 0-.931 1.268-1.729 3.536-2.793.572.057.85.065 1.17.067h.165c7.273 0 12.611-4.255 12.611-10.106 0-2.26-.667-3.99-2.001-5.585.533.067 1.468.2 2.335.2 2.469 0 4.337-.732 6.272-2.527l-3.736-5.651c-2.069 1.861-4.605 2.925-7.073 2.925-1.135 0-2.336-.266-4.204-.731-2.47-.598-4.204-.864-6.14-.864-8.74 0-14.412 4.52-14.412 11.502 0 5.053 2.402 8.177 7.34 9.44-5.605 1.463-6.273 3.524-6.273 5.718 0 2.327 1.001 3.857 2.603 4.455 1.601.665 4.203.997 8.207 1.064l3.804.066c3.536.067 6.272.997 6.272 4.056 0 1.396-.867 2.66-2.202 3.457-1.401.864-3.336 1.13-5.605 1.13-4.137 0-6.406-1.462-6.406-4.188 0-.931.067-1.397.4-2.194h-8.274c-.334.665-.8 1.595-.8 3.457 0 2.327.934 4.322 2.802 6.05 3.07 2.859 8.074 3.657 12.945 3.657zm-.595-31c-3.066 0-5.153-1.41-5.153-4.9 0-3.221 1.892-5.1 5.218-5.1s5.282 1.879 5.282 5.1c0 3.155-1.89 4.9-5.347 4.9zm37.536 19c4.816 0 8.963-1.52 12.91-4.694l-3.478-5.288c-2.743 2.247-5.62 3.371-8.697 3.371-4.615 0-7.224-2.975-7.224-8.197v-.265h19.8v-2.05c0-7.073-1.404-11.634-4.548-14.807-2.208-2.248-5.954-3.57-9.9-3.57-4.55 0-7.96 1.454-10.77 4.561-3.01 3.306-4.282 7.338-4.282 13.42 0 10.644 6.355 17.519 16.189 17.519zm4.311-22h-10.5v-.133c0-4.712 1.965-7.367 5.42-7.367 1.829 0 3.116.664 3.997 1.991.812 1.261 1.083 2.588 1.083 5.11v.399zm22.086 21.5v-24.133c2.057-1.867 4.379-3.067 6.17-3.067 2.323 0 2.986 1.133 2.986 5v22.2h8.758v-24.933c0-2.134-.199-3.6-.663-4.867-1.062-2.933-4.38-4.933-8.161-4.933-1.99 0-4.313.533-6.105 1.466-1.46.8-2.587 1.6-3.914 2.534 0-1.4-.465-2.867-1.26-4.267l-7.897 2.267c.797 2.266 1.195 5.066 1.195 8v24.733h8.89zm27.13-38c3.206 0 5.784-2.563 5.784-5.75s-2.509-5.75-5.645-5.75c-3.206 0-5.855 2.563-5.855 5.75s2.58 5.75 5.716 5.75zm5.284 38v-35l-9 1.403v33.597h9zm27.623.5l6.377-3.557c-1.342-1.58-2.08-3.886-2.08-6.125v-25.752l-8.593 1.778v23.71c-.672 1.647-3.357 3.228-5.572 3.228-1.343 0-2.685-.659-3.155-1.58-.47-.923-.738-2.504-.738-5.533v-21.67l-8.862 1.647v21.603c0 3.425.202 5.204.739 6.718 1.141 3.228 5.303 5.467 10.136 5.467 3.625 0 6.848-1.12 9.063-3.227.604 1.383 1.544 2.502 2.685 3.293zm22.983 0c8.61 0 14.394-4.849 14.394-11.987 0-2.29-.591-4.243-1.84-5.86l-.132-.17-.135-.169c-1.136-1.397-2.603-2.568-6.437-3.566l-4.075-1.077c-3.09-.809-4.207-1.751-4.207-3.502 0-2.02 1.709-3.367 4.272-3.367 2.498 0 4.93.74 8.282 2.491l2.892-6.06c-3.09-1.55-6.638-3.233-12.028-3.233-7.822 0-13.014 4.512-13.014 11.246 0 2.222.723 4.714 1.906 6.196 1.183 1.481 3.944 3.098 6.178 3.502l3.944.74c3.55.674 5.193 1.886 5.193 4.243 0 2.222-1.972 3.906-4.47 3.906-3.812 0-8.479-2.222-11.174-3.906l-3.155 6.6c4.93 2.626 9.465 3.973 13.606 3.973z" transform="translate(-1111 -351) translate(1111 351)"/>
            </g>
        </g>
    </g>
    <animateTransform attributeName="transform"
            id="anim1"
            type="scale"
            additive="sum" 
            from="0.75 0.75"
            to="0.8 0.8"
            begin="0s; anim2.end"
            dur="3s"
        />
    <animateTransform attributeName="transform"
            id="anim2"
            type="scale"
            additive="sum" 
            from="0.8 0.8"
            to="0.75 0.75"
            begin="anim1.end"
            dur="3s"
        />
</svg>
